<?xml version="1.0" encoding="utf-8"?>
<!-- Generator: Adobe Illustrator 16.0.3, SVG Export Plug-In . SVG Version: 6.00 Build 0)  -->
<!DOCTYPE svg PUBLIC "-//W3C//DTD SVG 1.1//EN" "http://www.w3.org/Graphics/SVG/1.1/DTD/svg11.dtd">
<svg version="1.1" id="Layer_1" xmlns="http://www.w3.org/2000/svg" xmlns:xlink="http://www.w3.org/1999/xlink" x="0px" y="0px"
	 width="595.28px" height="841.89px" viewBox="0 0 595.28 841.89" enable-background="new 0 0 595.28 841.89" xml:space="preserve">
<g>
	<g>
		<g>
			<path fill="#98C3CC" d="M135.621,233.067h24.857l-57.342-97.405l-56.821,97.405h24.862l31.943-54.964L135.621,233.067z"/>
		</g>
		<g>
			<path fill="#98C3CC" d="M521.672,233.067h24.857l-57.343-97.405l-56.82,97.405h24.862l31.943-54.964L521.672,233.067z"/>
		</g>
		<path fill="#98C3CC" d="M420.877,136.428v48.267c0,15.502-12.613,28.113-28.114,28.113c-15.502,0-28.112-12.611-28.112-28.113
			v-48.267h-10.515l-10.638,17.138v31.129c0,27.166,22.1,49.266,49.265,49.266c27.167,0,49.267-22.1,49.267-49.266v-48.267H420.877z
			"/>
		<path fill="#98C3CC" d="M219.927,204.543c-5.093,5.103-12.129,8.265-19.89,8.265c-15.501,0-28.112-12.611-28.112-28.113
			c0-15.501,12.611-28.113,28.112-28.113c7.657,0,14.602,3.085,19.678,8.068l18.578-10.937
			c-9.04-11.141-22.823-18.284-38.255-18.284c-27.165,0-49.265,22.101-49.265,49.266c0,27.166,22.1,49.266,49.265,49.266
			c15.563,0,29.439-7.272,38.475-18.576L219.927,204.543z"/>
		<path fill="#98C3CC" d="M310.95,233.943h24.847l-10.282-17.357c7.331-8.603,11.783-19.729,11.783-31.891
			c0-27.165-22.1-49.266-49.267-49.266c-27.165,0-49.264,22.101-49.264,49.266c0,27.166,22.1,49.266,49.264,49.266
			c7.255,0,14.127-1.617,20.335-4.445L310.95,233.943z M288.031,212.808c-15.501,0-28.112-12.611-28.112-28.113
			c0-15.501,12.611-28.114,28.112-28.114s28.115,12.612,28.115,28.114c0,4.182-0.943,8.139-2.588,11.708l-4.122-6.958
			l-16.035,14.432l4.211,7.214C294.617,212.182,291.399,212.808,288.031,212.808z"/>
	</g>
</g>
<g>
	<g>
		<g>
			<path fill="#B0B0A4" d="M125.887,633.511c0-18.744-15.251-34.331-33.996-34.331l-37.177,0.017l-12.75,20.729V695.7h21.094
				v-28.194h28.663C119.582,667.506,125.887,646.415,125.887,633.511z M91.891,647.558H63.058v-27.492h28.833
				c7.58,0,13.746,6.166,13.746,13.746S99.471,647.558,91.891,647.558z"/>
			<g>
				<path fill="#B0B0A4" d="M526.022,695.7h24.857l-57.343-97.405l-56.82,97.405h24.862l31.943-54.964L526.022,695.7z"/>
			</g>
			<g>
				<path fill="#B0B0A4" d="M313.176,619.825h17.278l12.98-20.74H263.93v20.74h28.152V695.7h21.094V619.825z"/>
			</g>
			<g>
				<path fill="#B0B0A4" d="M176.388,695.7h73.66v-21.659h-52.769v-17.392h52.769v-20.892h-52.769v-15.96h52.769v-20.669h-60.904
					l-12.756,20.711V695.7z"/>
			</g>
			<path fill="#B0B0A4" d="M411.579,663.746c11.568-5.821,18.756-17.453,18.756-30.356c0-18.745-15.252-34.331-33.996-34.331
				l-37.177,0.016l-12.75,20.73v75.773h21.094v-28.194h19.426l17.478,28.316h25.345l-19.343-31.37L411.579,663.746z
				 M396.339,647.436h-28.833v-27.491h28.833c7.58,0,13.746,6.165,13.746,13.745S403.919,647.436,396.339,647.436z"/>
			<rect x="138.448" y="598.853" fill="#B0B0A4" width="21.112" height="96.848"/>
		</g>
	</g>
</g>
<g>
	<g>
		<polygon fill="#C1CF7B" points="426.376,368.028 405.644,368.028 401.316,368.028 374.276,415.166 347.236,368.028 
			333.117,368.028 320.256,388.909 320.256,464.758 341.707,464.758 341.707,402.073 361.747,437.009 386.807,437.009 
			405.644,404.17 405.644,464.758 427.096,464.758 427.096,368.028 		"/>
		<g>
			<path fill="#C1CF7B" d="M238.363,464.858h58.46l12.516-21.45h-49.525v-75.354h-21.451V464.858z"/>
		</g>
		<g>
			<path fill="#C1CF7B" d="M205.026,464.802h24.857l-57.342-97.405l-56.821,97.405h24.862l31.943-54.963L205.026,464.802z"/>
		</g>
		<g>
			<path fill="#C1CF7B" d="M521.323,464.802h24.857l-57.343-97.405l-56.82,97.405h24.862l31.943-54.963L521.323,464.802z"/>
		</g>
		<path fill="#C1CF7B" d="M130.586,402.494c0-18.745-15.252-34.331-33.996-34.331l-37.177,0.016l-12.75,20.729v75.774h21.094
			v-28.194H96.42C124.281,436.488,130.586,415.397,130.586,402.494z M96.59,416.54H67.757v-27.492H96.59
			c7.58,0,13.746,6.166,13.746,13.746S104.17,416.54,96.59,416.54z"/>
	</g>
</g>
</svg>
